<?xml version="1.0" encoding="UTF-8" standalone="no"?>
<!DOCTYPE svg PUBLIC "-//W3C//DTD SVG 1.1//EN"
 "http://www.w3.org/Graphics/SVG/1.1/DTD/svg11.dtd">
<!-- Generated by graphviz version 2.43.0 (0)
 -->
<!-- Title: %3 Pages: 1 -->
<svg width="564pt" height="540pt"
 viewBox="0.00 0.00 563.51 540.00" xmlns="http://www.w3.org/2000/svg" xmlns:xlink="http://www.w3.org/1999/xlink">
<g id="graph0" class="graph" transform="scale(1 1) rotate(0) translate(4 536)">
<title>%3</title>
<!-- SyntaxNode -->
<g id="node1" class="node">
<title>SyntaxNode</title>
<g id="a_node1"><a xlink:href="/api/DotLang.CodeAnalysis.Syntax.SyntaxNode.html" xlink:title="\N" target="_parent">
<polygon fill="none" stroke="#102538" points="463.24,-275.5 463.24,-311.5 555.51,-311.5 555.51,-275.5 463.24,-275.5"/>
<text text-anchor="middle" x="509.38" y="-289.3" font-family="sans-serif" font-size="14.00" fill="#337ab7">SyntaxNode</text>
</a>
</g>
</g>
<!-- AttributeListSyntax -->
<g id="node2" class="node">
<title>AttributeListSyntax</title>
<g id="a_node2"><a xlink:href="/api/DotLang.CodeAnalysis.Syntax.AttributeListSyntax.html" xlink:title="\N" target="_parent">
<polygon fill="none" stroke="#102538" points="262.63,-495.5 262.63,-531.5 395.35,-531.5 395.35,-495.5 262.63,-495.5"/>
<text text-anchor="middle" x="328.99" y="-509.3" font-family="sans-serif" font-size="14.00" fill="#337ab7">AttributeListSyntax</text>
</a>
</g>
</g>
<!-- AttributeListSyntax&#45;&gt;SyntaxNode -->
<g id="edge1" class="edge">
<title>AttributeListSyntax&#45;&gt;SyntaxNode</title>
<path fill="none" stroke="#3b5266" d="M395.58,-504.03C407.08,-500.05 418.23,-494.43 427.24,-486.5 476.81,-442.87 496.89,-363.96 504.37,-321.82"/>
<polygon fill="#3b5266" stroke="#3b5266" points="507.86,-322.14 506.04,-311.7 500.96,-320.99 507.86,-322.14"/>
</g>
<!-- AttributeSyntax -->
<g id="node3" class="node">
<title>AttributeSyntax</title>
<g id="a_node3"><a xlink:href="/api/DotLang.CodeAnalysis.Syntax.AttributeSyntax.html" xlink:title="\N" target="_parent">
<polygon fill="none" stroke="#102538" points="273.52,-440.5 273.52,-476.5 384.46,-476.5 384.46,-440.5 273.52,-440.5"/>
<text text-anchor="middle" x="328.99" y="-454.3" font-family="sans-serif" font-size="14.00" fill="#337ab7">AttributeSyntax</text>
</a>
</g>
</g>
<!-- AttributeSyntax&#45;&gt;SyntaxNode -->
<g id="edge2" class="edge">
<title>AttributeSyntax&#45;&gt;SyntaxNode</title>
<path fill="none" stroke="#3b5266" d="M384.61,-451.08C399.53,-447.09 414.94,-440.95 427.24,-431.5 464.23,-403.08 487.59,-352.61 499.3,-321.22"/>
<polygon fill="#3b5266" stroke="#3b5266" points="502.61,-322.34 502.69,-311.75 496.02,-319.98 502.61,-322.34"/>
</g>
<!-- NodeIdentifierSyntax -->
<g id="node4" class="node">
<title>NodeIdentifierSyntax</title>
<g id="a_node4"><a xlink:href="/api/DotLang.CodeAnalysis.Syntax.NodeIdentifierSyntax.html" xlink:title="\N" target="_parent">
<polygon fill="none" stroke="#102538" points="256,-385.5 256,-421.5 401.97,-421.5 401.97,-385.5 256,-385.5"/>
<text text-anchor="middle" x="328.99" y="-399.3" font-family="sans-serif" font-size="14.00" fill="#337ab7">NodeIdentifierSyntax</text>
</a>
</g>
</g>
<!-- NodeIdentifierSyntax&#45;&gt;SyntaxNode -->
<g id="edge3" class="edge">
<title>NodeIdentifierSyntax&#45;&gt;SyntaxNode</title>
<path fill="none" stroke="#3b5266" d="M402.15,-388.13C410.89,-384.93 419.47,-381.09 427.24,-376.5 451.76,-362.01 473.94,-338.21 488.89,-319.81"/>
<polygon fill="#3b5266" stroke="#3b5266" points="491.77,-321.8 495.23,-311.79 486.28,-317.46 491.77,-321.8"/>
</g>
<!-- PortSyntax -->
<g id="node5" class="node">
<title>PortSyntax</title>
<g id="a_node5"><a xlink:href="/api/DotLang.CodeAnalysis.Syntax.PortSyntax.html" xlink:title="\N" target="_parent">
<polygon fill="none" stroke="#102538" points="286.75,-330.5 286.75,-366.5 371.23,-366.5 371.23,-330.5 286.75,-330.5"/>
<text text-anchor="middle" x="328.99" y="-344.3" font-family="sans-serif" font-size="14.00" fill="#337ab7">PortSyntax</text>
</a>
</g>
</g>
<!-- PortSyntax&#45;&gt;SyntaxNode -->
<g id="edge4" class="edge">
<title>PortSyntax&#45;&gt;SyntaxNode</title>
<path fill="none" stroke="#3b5266" d="M371.32,-337.63C388.67,-332.91 409,-327.17 427.24,-321.5 435.72,-318.86 444.65,-315.94 453.35,-313"/>
<polygon fill="#3b5266" stroke="#3b5266" points="454.72,-316.23 463.05,-309.69 452.46,-309.61 454.72,-316.23"/>
</g>
<!-- PreprocessorDirectiveSyntax -->
<g id="node6" class="node">
<title>PreprocessorDirectiveSyntax</title>
<g id="a_node6"><a xlink:href="/api/DotLang.CodeAnalysis.Syntax.PreprocessorDirectiveSyntax.html" xlink:title="\N" target="_parent">
<polygon fill="none" stroke="#102538" points="230.73,-275.5 230.73,-311.5 427.24,-311.5 427.24,-275.5 230.73,-275.5"/>
<text text-anchor="middle" x="328.99" y="-289.3" font-family="sans-serif" font-size="14.00" fill="#337ab7">PreprocessorDirectiveSyntax</text>
</a>
</g>
</g>
<!-- PreprocessorDirectiveSyntax&#45;&gt;SyntaxNode -->
<g id="edge5" class="edge">
<title>PreprocessorDirectiveSyntax&#45;&gt;SyntaxNode</title>
<path fill="none" stroke="#3b5266" d="M427.27,-293.5C435.99,-293.5 444.6,-293.5 452.77,-293.5"/>
<polygon fill="#3b5266" stroke="#3b5266" points="452.85,-297 462.85,-293.5 452.85,-290 452.85,-297"/>
</g>
<!-- StatementSyntax -->
<g id="node7" class="node">
<title>StatementSyntax</title>
<g id="a_node7"><a xlink:href="/api/DotLang.CodeAnalysis.Syntax.StatementSyntax.html" xlink:title="\N" target="_parent">
<polygon fill="none" stroke="#102538" points="267.68,-220.5 267.68,-256.5 390.29,-256.5 390.29,-220.5 267.68,-220.5"/>
<text text-anchor="middle" x="328.99" y="-234.3" font-family="sans-serif" font-size="14.00" fill="#337ab7">StatementSyntax</text>
</a>
</g>
</g>
<!-- StatementSyntax&#45;&gt;SyntaxNode -->
<g id="edge6" class="edge">
<title>StatementSyntax&#45;&gt;SyntaxNode</title>
<path fill="none" stroke="#3b5266" d="M390.54,-255.52C402.72,-259.06 415.41,-262.83 427.24,-266.5 435.69,-269.12 444.6,-271.98 453.3,-274.83"/>
<polygon fill="#3b5266" stroke="#3b5266" points="452.4,-278.22 463,-278.03 454.6,-271.58 452.4,-278.22"/>
</g>
<!-- SyntaxToken -->
<g id="node8" class="node">
<title>SyntaxToken</title>
<g id="a_node8"><a xlink:href="/api/DotLang.CodeAnalysis.Syntax.SyntaxToken.html" xlink:title="\N" target="_parent">
<polygon fill="none" stroke="#102538" points="280.91,-165.5 280.91,-201.5 377.07,-201.5 377.07,-165.5 280.91,-165.5"/>
<text text-anchor="middle" x="328.99" y="-179.3" font-family="sans-serif" font-size="14.00" fill="#337ab7">SyntaxToken</text>
</a>
</g>
</g>
<!-- SyntaxToken&#45;&gt;SyntaxNode -->
<g id="edge7" class="edge">
<title>SyntaxToken&#45;&gt;SyntaxNode</title>
<path fill="none" stroke="#3b5266" d="M377.48,-192.03C393.99,-196.3 412.13,-202.53 427.24,-211.5 451.59,-225.95 473.78,-249.44 488.78,-267.58"/>
<polygon fill="#3b5266" stroke="#3b5266" points="486.15,-269.9 495.15,-275.49 491.6,-265.51 486.15,-269.9"/>
</g>
<!-- SyntaxTree -->
<g id="node9" class="node">
<title>SyntaxTree</title>
<g id="a_node9"><a xlink:href="/api/DotLang.CodeAnalysis.Syntax.SyntaxTree.html" xlink:title="\N" target="_parent">
<polygon fill="none" stroke="#102538" points="285.45,-110.5 285.45,-146.5 372.52,-146.5 372.52,-110.5 285.45,-110.5"/>
<text text-anchor="middle" x="328.99" y="-124.3" font-family="sans-serif" font-size="14.00" fill="#337ab7">SyntaxTree</text>
</a>
</g>
</g>
<!-- SyntaxTree&#45;&gt;SyntaxNode -->
<g id="edge8" class="edge">
<title>SyntaxTree&#45;&gt;SyntaxNode</title>
<path fill="none" stroke="#3b5266" d="M372.91,-133.68C391.11,-137.6 411.67,-144.46 427.24,-156.5 463.79,-184.76 487.19,-234.5 499.04,-265.64"/>
<polygon fill="#3b5266" stroke="#3b5266" points="495.9,-267.24 502.62,-275.43 502.47,-264.83 495.9,-267.24"/>
</g>
<!-- ToplevelGraphSyntax -->
<g id="node10" class="node">
<title>ToplevelGraphSyntax</title>
<g id="a_node10"><a xlink:href="/api/DotLang.CodeAnalysis.Syntax.ToplevelGraphSyntax.html" xlink:title="\N" target="_parent">
<polygon fill="none" stroke="#102538" points="254.45,-55.5 254.45,-91.5 403.52,-91.5 403.52,-55.5 254.45,-55.5"/>
<text text-anchor="middle" x="328.99" y="-69.3" font-family="sans-serif" font-size="14.00" fill="#337ab7">ToplevelGraphSyntax</text>
</a>
</g>
</g>
<!-- ToplevelGraphSyntax&#45;&gt;SyntaxNode -->
<g id="edge9" class="edge">
<title>ToplevelGraphSyntax&#45;&gt;SyntaxNode</title>
<path fill="none" stroke="#3b5266" d="M403.81,-86.95C412.34,-90.68 420.41,-95.44 427.24,-101.5 476.43,-145.13 496.66,-223.54 504.27,-265.38"/>
<polygon fill="#3b5266" stroke="#3b5266" points="500.85,-266.16 505.98,-275.43 507.75,-264.99 500.85,-266.16"/>
</g>
<!-- AttributeStatementSyntax -->
<g id="node11" class="node">
<title>AttributeStatementSyntax</title>
<g id="a_node11"><a xlink:href="/api/DotLang.CodeAnalysis.Syntax.AttributeStatementSyntax.html" xlink:title="\N" target="_parent">
<polygon fill="none" stroke="#102538" points="9.99,-385.5 9.99,-421.5 184.74,-421.5 184.74,-385.5 9.99,-385.5"/>
<text text-anchor="middle" x="97.37" y="-399.3" font-family="sans-serif" font-size="14.00" fill="#337ab7">AttributeStatementSyntax</text>
</a>
</g>
</g>
<!-- AttributeStatementSyntax&#45;&gt;StatementSyntax -->
<g id="edge10" class="edge">
<title>AttributeStatementSyntax&#45;&gt;StatementSyntax</title>
<path fill="none" stroke="#3b5266" d="M183.17,-385.41C187.32,-382.82 191.22,-379.87 194.73,-376.5 231.88,-340.92 193.71,-302.21 230.73,-266.5 238.4,-259.1 247.89,-253.64 257.91,-249.61"/>
<polygon fill="#3b5266" stroke="#3b5266" points="259.37,-252.8 267.63,-246.17 257.04,-246.21 259.37,-252.8"/>
</g>
<!-- EdgeStatementSyntax -->
<g id="node12" class="node">
<title>EdgeStatementSyntax</title>
<g id="a_node12"><a xlink:href="/api/DotLang.CodeAnalysis.Syntax.EdgeStatementSyntax.html" xlink:title="\N" target="_parent">
<polygon fill="none" stroke="#102538" points="19.71,-330.5 19.71,-366.5 175.02,-366.5 175.02,-330.5 19.71,-330.5"/>
<text text-anchor="middle" x="97.37" y="-344.3" font-family="sans-serif" font-size="14.00" fill="#337ab7">EdgeStatementSyntax</text>
</a>
</g>
</g>
<!-- EdgeStatementSyntax&#45;&gt;StatementSyntax -->
<g id="edge11" class="edge">
<title>EdgeStatementSyntax&#45;&gt;StatementSyntax</title>
<path fill="none" stroke="#3b5266" d="M175.46,-332.48C182.3,-329.44 188.85,-325.81 194.73,-321.5 218.3,-304.24 207.23,-283.85 230.73,-266.5 238.84,-260.51 248.2,-255.8 257.85,-252.1"/>
<polygon fill="#3b5266" stroke="#3b5266" points="259.26,-255.32 267.55,-248.72 256.95,-248.71 259.26,-255.32"/>
</g>
<!-- EmptyStatementSyntax -->
<g id="node13" class="node">
<title>EmptyStatementSyntax</title>
<g id="a_node13"><a xlink:href="/api/DotLang.CodeAnalysis.Syntax.EmptyStatementSyntax.html" xlink:title="\N" target="_parent">
<polygon fill="none" stroke="#102538" points="16.22,-275.5 16.22,-311.5 178.51,-311.5 178.51,-275.5 16.22,-275.5"/>
<text text-anchor="middle" x="97.37" y="-289.3" font-family="sans-serif" font-size="14.00" fill="#337ab7">EmptyStatementSyntax</text>
</a>
</g>
</g>
<!-- EmptyStatementSyntax&#45;&gt;StatementSyntax -->
<g id="edge12" class="edge">
<title>EmptyStatementSyntax&#45;&gt;StatementSyntax</title>
<path fill="none" stroke="#3b5266" d="M173.55,-275.49C200.58,-269.02 230.94,-261.75 257.54,-255.37"/>
<polygon fill="#3b5266" stroke="#3b5266" points="258.63,-258.71 267.54,-252.98 257,-251.9 258.63,-258.71"/>
</g>
<!-- NameValueStatementSyntax -->
<g id="node14" class="node">
<title>NameValueStatementSyntax</title>
<g id="a_node14"><a xlink:href="/api/DotLang.CodeAnalysis.Syntax.NameValueStatementSyntax.html" xlink:title="\N" target="_parent">
<polygon fill="none" stroke="#102538" points="0,-220.5 0,-256.5 194.73,-256.5 194.73,-220.5 0,-220.5"/>
<text text-anchor="middle" x="97.37" y="-234.3" font-family="sans-serif" font-size="14.00" fill="#337ab7">NameValueStatementSyntax</text>
</a>
</g>
</g>
<!-- NameValueStatementSyntax&#45;&gt;StatementSyntax -->
<g id="edge13" class="edge">
<title>NameValueStatementSyntax&#45;&gt;StatementSyntax</title>
<path fill="none" stroke="#3b5266" d="M194.75,-238.5C215.76,-238.5 237.61,-238.5 257.39,-238.5"/>
<polygon fill="#3b5266" stroke="#3b5266" points="257.53,-242 267.53,-238.5 257.53,-235 257.53,-242"/>
</g>
<!-- NodeStatementSyntax -->
<g id="node15" class="node">
<title>NodeStatementSyntax</title>
<g id="a_node15"><a xlink:href="/api/DotLang.CodeAnalysis.Syntax.NodeStatementSyntax.html" xlink:title="\N" target="_parent">
<polygon fill="none" stroke="#102538" points="19.33,-165.5 19.33,-201.5 175.41,-201.5 175.41,-165.5 19.33,-165.5"/>
<text text-anchor="middle" x="97.37" y="-179.3" font-family="sans-serif" font-size="14.00" fill="#337ab7">NodeStatementSyntax</text>
</a>
</g>
</g>
<!-- NodeStatementSyntax&#45;&gt;StatementSyntax -->
<g id="edge14" class="edge">
<title>NodeStatementSyntax&#45;&gt;StatementSyntax</title>
<path fill="none" stroke="#3b5266" d="M173.55,-201.51C200.58,-207.98 230.94,-215.25 257.54,-221.63"/>
<polygon fill="#3b5266" stroke="#3b5266" points="257,-225.1 267.54,-224.02 258.63,-218.29 257,-225.1"/>
</g>
<!-- SubgraphStatementSyntax -->
<g id="node16" class="node">
<title>SubgraphStatementSyntax</title>
<g id="a_node16"><a xlink:href="/api/DotLang.CodeAnalysis.Syntax.SubgraphStatementSyntax.html" xlink:title="\N" target="_parent">
<polygon fill="none" stroke="#102538" points="5.7,-110.5 5.7,-146.5 189.03,-146.5 189.03,-110.5 5.7,-110.5"/>
<text text-anchor="middle" x="97.37" y="-124.3" font-family="sans-serif" font-size="14.00" fill="#337ab7">SubgraphStatementSyntax</text>
</a>
</g>
</g>
<!-- SubgraphStatementSyntax&#45;&gt;StatementSyntax -->
<g id="edge15" class="edge">
<title>SubgraphStatementSyntax&#45;&gt;StatementSyntax</title>
<path fill="none" stroke="#3b5266" d="M178.38,-146.73C184.16,-149.53 189.69,-152.77 194.73,-156.5 218.22,-173.88 207.14,-194.26 230.73,-211.5 238.85,-217.43 248.21,-222.06 257.86,-225.67"/>
<polygon fill="#3b5266" stroke="#3b5266" points="256.97,-229.07 267.56,-228.96 259.21,-222.44 256.97,-229.07"/>
</g>
<!-- DigraphSyntax -->
<g id="node17" class="node">
<title>DigraphSyntax</title>
<g id="a_node17"><a xlink:href="/api/DotLang.CodeAnalysis.Syntax.DigraphSyntax.html" xlink:title="\N" target="_parent">
<polygon fill="none" stroke="#102538" points="43.45,-55.5 43.45,-91.5 151.28,-91.5 151.28,-55.5 43.45,-55.5"/>
<text text-anchor="middle" x="97.37" y="-69.3" font-family="sans-serif" font-size="14.00" fill="#337ab7">DigraphSyntax</text>
</a>
</g>
</g>
<!-- DigraphSyntax&#45;&gt;ToplevelGraphSyntax -->
<g id="edge16" class="edge">
<title>DigraphSyntax&#45;&gt;ToplevelGraphSyntax</title>
<path fill="none" stroke="#3b5266" d="M151.33,-73.5C178.82,-73.5 213.05,-73.5 244.04,-73.5"/>
<polygon fill="#3b5266" stroke="#3b5266" points="244.41,-77 254.41,-73.5 244.41,-70 244.41,-77"/>
</g>
<!-- GraphSyntax -->
<g id="node18" class="node">
<title>GraphSyntax</title>
<g id="a_node18"><a xlink:href="/api/DotLang.CodeAnalysis.Syntax.GraphSyntax.html" xlink:title="\N" target="_parent">
<polygon fill="none" stroke="#102538" points="48.51,-0.5 48.51,-36.5 146.22,-36.5 146.22,-0.5 48.51,-0.5"/>
<text text-anchor="middle" x="97.37" y="-14.3" font-family="sans-serif" font-size="14.00" fill="#337ab7">GraphSyntax</text>
</a>
</g>
</g>
<!-- GraphSyntax&#45;&gt;ToplevelGraphSyntax -->
<g id="edge17" class="edge">
<title>GraphSyntax&#45;&gt;ToplevelGraphSyntax</title>
<path fill="none" stroke="#3b5266" d="M146.22,-29.96C174.57,-36.75 211.29,-45.55 244.3,-53.46"/>
<polygon fill="#3b5266" stroke="#3b5266" points="243.87,-56.95 254.41,-55.88 245.5,-50.14 243.87,-56.95"/>
</g>
</g>
</svg>
